<svg width="70" height="70" viewBox="0 0 70 70" fill="none" xmlns="http://www.w3.org/2000/svg">
<g id="solar:copy-outline">
<path id="Vector" fill-rule="evenodd" clip-rule="evenodd" d="M43.75 3.64584H31.92C26.5592 3.64584 22.3125 3.64584 18.9904 4.09209C15.5721 4.55292 12.8042 5.52125 10.6196 7.70292C8.43792 9.8875 7.46958 12.6554 7.00875 16.0738C6.5625 19.3988 6.5625 23.6425 6.5625 29.0033V46.6667C6.56198 49.2726 7.49192 51.7932 9.18487 53.7743C10.8778 55.7555 13.2225 57.0671 15.7967 57.4729C16.1962 59.7013 16.9692 61.6029 18.515 63.1517C20.2708 64.9075 22.4817 65.66 25.1067 66.0158C27.6354 66.3542 30.8525 66.3542 34.8396 66.3542H43.9104C47.8975 66.3542 51.1146 66.3542 53.6433 66.0158C56.2683 65.66 58.4792 64.9075 60.235 63.1517C61.9908 61.3958 62.7433 59.185 63.0992 56.56C63.4375 54.0313 63.4375 50.8142 63.4375 46.8271V31.9229C63.4375 27.9358 63.4375 24.7188 63.0992 22.19C62.7433 19.565 61.9908 17.3542 60.235 15.5983C58.6863 14.0525 56.7846 13.2796 54.5563 12.88C54.1504 10.3058 52.8388 7.96115 50.8577 6.2682C48.8765 4.57526 46.356 3.64531 43.75 3.64584ZM49.9625 12.4571C49.519 11.1621 48.6816 10.0382 47.5677 9.2427C46.4537 8.44723 45.1188 8.02 43.75 8.02084H32.0833C26.5212 8.02084 22.5721 8.02667 19.5708 8.42917C16.6396 8.82292 14.9479 9.56375 13.7142 10.7975C12.4804 12.0313 11.7396 13.7229 11.3458 16.6542C10.9433 19.6554 10.9375 23.6046 10.9375 29.1667V46.6667C10.9367 48.0355 11.3639 49.3704 12.1594 50.4843C12.9548 51.5983 14.0787 52.4357 15.3737 52.8792C15.3125 51.1 15.3125 49.0875 15.3125 46.8271V31.9229C15.3125 27.9358 15.3125 24.7188 15.6538 22.19C16.0038 19.565 16.7621 17.3542 18.515 15.5983C20.2708 13.8425 22.4817 13.09 25.1067 12.7371C27.6354 12.3958 30.8525 12.3958 34.8396 12.3958H43.9104C46.1708 12.3958 48.1833 12.3958 49.9625 12.4571ZM21.6067 18.6958C22.4146 17.8879 23.5462 17.3629 25.69 17.0742C27.8892 16.7796 30.8117 16.7738 34.9971 16.7738H43.7471C47.9325 16.7738 50.8521 16.7796 53.0571 17.0742C55.1979 17.3629 56.3296 17.8908 57.1375 18.6958C57.9454 19.5038 58.4704 20.6354 58.7592 22.7792C59.0538 24.9783 59.0596 27.9008 59.0596 32.0863V46.6696C59.0596 50.855 59.0538 53.7746 58.7592 55.9796C58.4704 58.1204 57.9425 59.2521 57.1375 60.06C56.3296 60.8679 55.1979 61.3929 53.0542 61.6817C50.8521 61.9763 47.9325 61.9821 43.7471 61.9821H34.9971C30.8117 61.9821 27.8892 61.9763 25.6871 61.6817C23.5463 61.3929 22.4146 60.865 21.6067 60.06C20.7987 59.2521 20.2738 58.1204 19.985 55.9767C19.6904 53.7746 19.6846 50.855 19.6846 46.6696V32.0863C19.6846 27.9008 19.6904 24.9783 19.985 22.7763C20.2738 20.6354 20.8017 19.5038 21.6067 18.6958Z" fill="black"/>
</g>
</svg>
